<svg id="ev15EcePijW1" xmlns="http://www.w3.org/2000/svg" xmlns:xlink="http://www.w3.org/1999/xlink" viewBox="0 0 48 48"  width="30px" height="30px" shape-rendering="geometricPrecision" text-rendering="geometricPrecision"><path id="ev15EcePijW2" d="M16.5,5C10.16639,5,5,10.16639,5,16.5L5,31.5C5,37.832757,10.166209,43,16.5,43L31.5,43C37.832938,43,43,37.832938,43,31.5L43,16.5C43,10.166209,37.832757,5,31.5,5L16.5,5ZM16.5,8L31.5,8C36.211243,8,40,11.787791,40,16.5L40,31.5C40,36.211062,36.211062,40,31.5,40L16.5,40C11.787791,40,8,36.211243,8,31.5L8,16.5C8,11.78761,11.78761,8,16.5,8Z" transform="matrix(1 0 0 1 -0.077022 0)" fill="rgb(94,101,141)" stroke="none" stroke-width="1"/><line id="ev15EcePijW3" x1="-11.861361" y1="0" x2="11.861361" y2="0" transform="matrix(1 0 0 1 23.922978 16.5)" fill="none" stroke="rgb(63,87,135)" stroke-width="0.48"/><line id="ev15EcePijW4" x1="-4.619191" y1="0" x2="4.619191" y2="0" transform="matrix(1 0 0 1 16.680808 31.5)" fill="none" stroke="rgb(63,87,135)" stroke-width="0.48"/><line id="ev15EcePijW5" x1="-4.619191" y1="0" x2="4.619191" y2="0" transform="matrix(1 0 0 1 16.680808 24)" fill="none" stroke="rgb(63,87,135)" stroke-width="0.48"/><line id="ev15EcePijW6" x1="-5.89217" y1="0" x2="5.89217" y2="0" transform="matrix(1 0 0 1 29.89217 24)" fill="none" stroke="rgb(63,87,135)" stroke-width="0.48"/><line id="ev15EcePijW7" x1="-5.930681" y1="0" x2="5.930681" y2="0" transform="matrix(1 0 0 1 29.853659 31.5)" fill="none" stroke="rgb(63,87,135)" stroke-width="0.48"/><line id="ev15EcePijW8" x1="-4.619191" y1="0" x2="4.619191" y2="0" transform="matrix(1 0 0 1 16.680808 31.5)" fill="none" stroke="rgb(63,87,135)" stroke-width="0.48"/><line id="ev15EcePijW9" x1="-2.4" y1="0" x2="2.4" y2="0" transform="matrix(1 0 0 1 29.853659 16.5)" fill="none" stroke="rgb(63,87,135)" stroke-width="0.48"/><line id="ev15EcePijW10" x1="0" y1="-16" x2="0" y2="16" transform="matrix(1 0 0 1 21.299999 24)" fill="none" stroke="rgb(63,87,135)" stroke-width="0.48"/><ellipse id="ev15EcePijW11" rx="2.400001" ry="2.400001" transform="matrix(1 0 0 1 17.05366 12.9)" fill="rgb(94,101,141)" stroke="none" stroke-width="0"/></svg>